<svg xmlns="http://www.w3.org/2000/svg" version="1.1" xmlns:xlink="http://www.w3.org/1999/xlink" xmlns:svgjs="http://svgjs.dev/svgjs" width="1000" height="338" viewBox="0 0 1000 338"><g transform="matrix(1,0,0,1,-0.6060580600371281,0.4192403605085815)"><svg viewBox="0 0 396 134" data-background-color="#ffffff" preserveAspectRatio="xMidYMid meet" height="338" width="1000" xmlns="http://www.w3.org/2000/svg" xmlns:xlink="http://www.w3.org/1999/xlink"><g id="tight-bounds" transform="matrix(1,0,0,1,0.24000065346425004,-0.16620736212701104)"><svg viewBox="0 0 395.5199999999999 134.33241472425402" height="134.33241472425402" width="395.5199999999999"><g><svg viewBox="0 0 624.2571417218575 212.01954201142289" height="134.33241472425402" width="395.5199999999999"><g transform="matrix(1,0,0,1,0,29.302266660044708)"><svg viewBox="0 0 395.52 153.41500869133347" height="153.41500869133347" width="395.52"><g><svg viewBox="0 0 395.52 153.41500869133347" height="153.41500869133347" width="395.52"><g><svg viewBox="0 0 395.52 153.41500869133347" height="153.41500869133347" width="395.52"><g transform="matrix(1,0,0,1,0,0)"><svg width="395.52" viewBox="4.350001335144043 -35.650001525878906 201.34999084472656 75.10000610351562" height="153.41500869133347" data-palette-color="#2b2b2b"><svg></svg><svg></svg><g class="undefined-text-0" data-fill-palette-color="primary" id="text-0"><path xmlns="http://www.w3.org/2000/svg" d="M25.95-11.5l6.15 11.5h-4.5l-6-11.3c-0.733-1.367-1.59-2.31-2.57-2.83-0.987-0.513-2.33-0.77-4.03-0.77v0h-6.6v14.9h-4.05v-35.25h14.5c3.833 0 6.76 0.85 8.78 2.55 2.013 1.7 3.02 4.2 3.02 7.5v0c0 2.733-0.773 4.943-2.32 6.63-1.553 1.68-3.763 2.737-6.63 3.17v0c0.9 0.267 1.693 0.717 2.38 1.35 0.68 0.633 1.303 1.483 1.87 2.55zM8.4-18.3h10.1c2.733 0 4.777-0.567 6.13-1.7 1.347-1.133 2.02-2.85 2.02-5.15v0c0-2.267-0.667-3.95-2-5.05-1.333-1.1-3.383-1.65-6.15-1.65v0h-10.1zM53.15 0.4c-3.267 0-6.107-0.733-8.52-2.2-2.42-1.467-4.28-3.55-5.58-6.25-1.3-2.7-1.95-5.883-1.95-9.55v0c0-3.7 0.643-6.91 1.93-9.63 1.28-2.713 3.13-4.797 5.55-6.25 2.413-1.447 5.27-2.17 8.57-2.17v0c3.3 0 6.16 0.723 8.58 2.17 2.413 1.453 4.263 3.537 5.55 6.25 1.28 2.72 1.92 5.913 1.92 9.58v0c0 3.667-0.65 6.857-1.95 9.57-1.3 2.72-3.157 4.813-5.57 6.28-2.42 1.467-5.263 2.2-8.53 2.2zM53.15-3.1c3.733 0 6.643-1.26 8.73-3.78 2.08-2.513 3.12-6.103 3.12-10.77v0c0-4.667-1.033-8.25-3.1-10.75-2.067-2.5-4.983-3.75-8.75-3.75v0c-3.733 0-6.64 1.257-8.72 3.77-2.087 2.52-3.13 6.097-3.13 10.73v0c0 4.633 1.043 8.217 3.13 10.75 2.08 2.533 4.987 3.8 8.72 3.8zM98.35 0h-21.75v-35.25h4.1v31.75h17.65zM133.95 0h-4.15l-3.9-9.05h-18.4l-3.9 9.05h-4.2l15.5-35.25h3.55zM116.7-30.5l-7.75 18.05h15.5zM163.6-6.9v-28.35h3.85v35.25h-3.15l-21.25-28.35v28.35h-3.85v-35.25h3.15zM176.15 0v-35.25h11.85c5.633 0 9.993 1.523 13.08 4.57 3.08 3.053 4.62 7.397 4.62 13.03v0c0 5.633-1.54 9.983-4.62 13.05-3.087 3.067-7.447 4.6-13.08 4.6v0zM180.25-3.5h7.5c9.133 0 13.7-4.717 13.7-14.15v0c0-9.4-4.567-14.1-13.7-14.1v0h-7.5z" fill="#2b2b2b" fill-rule="nonzero" stroke="none" stroke-width="1" stroke-linecap="butt" stroke-linejoin="miter" stroke-miterlimit="10" stroke-dasharray="" stroke-dashoffset="0" font-family="none" font-weight="none" font-size="none" text-anchor="none" style="mix-blend-mode: normal" data-fill-palette-color="primary" opacity="1"></path><path xmlns="http://www.w3.org/2000/svg" d="M73.5 29.35l13.2-25.55h3.35v35.25h-3.75l0.05-27.3-11.45 21.7h-2.9l-11.5-21.5 0.05 27.1h-3.8v-35.25h3.4zM112.55 39.45c-4.6 0-8.083-1.2-10.45-3.6-2.367-2.4-3.55-5.933-3.55-10.6v0-21.45h4.05v21.8c0 3.433 0.843 6.017 2.53 7.75 1.68 1.733 4.153 2.6 7.42 2.6v0c3.267 0 5.733-0.867 7.4-2.6 1.667-1.733 2.5-4.317 2.5-7.75v0-21.8h4.1v21.45c0 4.633-1.19 8.157-3.57 10.57-2.387 2.42-5.863 3.63-10.43 3.63zM146.2 39.45c-5.5 0-9.9-1.483-13.2-4.45v0l1.6-3.15c1.733 1.467 3.51 2.517 5.33 3.15 1.813 0.633 3.92 0.95 6.32 0.95v0c2.833 0 5.017-0.55 6.55-1.65 1.533-1.1 2.3-2.65 2.3-4.65v0c0-1.167-0.367-2.117-1.1-2.85-0.733-0.733-1.7-1.317-2.9-1.75-1.2-0.433-2.817-0.883-4.85-1.35v0c-2.733-0.633-4.973-1.3-6.72-2-1.753-0.7-3.17-1.7-4.25-3-1.087-1.3-1.63-3-1.63-5.1v0c0-2 0.527-3.777 1.58-5.33 1.047-1.547 2.547-2.747 4.5-3.6 1.947-0.847 4.203-1.27 6.77-1.27v0c2.433 0 4.707 0.383 6.82 1.15 2.12 0.767 3.913 1.867 5.38 3.3v0l-1.55 3.15c-1.667-1.433-3.36-2.477-5.08-3.13-1.713-0.647-3.57-0.97-5.57-0.97v0c-2.733 0-4.877 0.573-6.43 1.72-1.547 1.153-2.32 2.763-2.32 4.83v0c0 1.767 0.683 3.1 2.05 4 1.367 0.9 3.433 1.667 6.2 2.3v0c3.033 0.733 5.417 1.407 7.15 2.02 1.733 0.62 3.177 1.547 4.33 2.78 1.147 1.233 1.72 2.883 1.72 4.95v0c0 2-0.527 3.75-1.58 5.25-1.047 1.5-2.553 2.657-4.52 3.47-1.967 0.82-4.267 1.23-6.9 1.23zM169.95 39.05h-4.1v-35.25h4.1zM193.7 39.45c-3.333 0-6.233-0.727-8.7-2.18-2.467-1.447-4.36-3.53-5.68-6.25-1.313-2.713-1.97-5.92-1.97-9.62v0c0-3.7 0.657-6.9 1.97-9.6 1.32-2.7 3.213-4.777 5.68-6.23 2.467-1.447 5.367-2.17 8.7-2.17v0c2.433 0 4.667 0.377 6.7 1.13 2.033 0.747 3.8 1.853 5.3 3.32v0l-1.55 3.15c-1.7-1.433-3.367-2.467-5-3.1-1.633-0.633-3.433-0.95-5.4-0.95v0c-3.867 0-6.857 1.257-8.97 3.77-2.12 2.52-3.18 6.08-3.18 10.68v0c0 4.633 1.06 8.207 3.18 10.72 2.113 2.52 5.103 3.78 8.97 3.78v0c1.967 0 3.767-0.317 5.4-0.95 1.633-0.633 3.3-1.667 5-3.1v0l1.55 3.15c-1.5 1.467-3.267 2.573-5.3 3.32-2.033 0.753-4.267 1.13-6.7 1.13z" fill="#d2601a" fill-rule="nonzero" stroke="none" stroke-width="1" stroke-linecap="butt" stroke-linejoin="miter" stroke-miterlimit="10" stroke-dasharray="" stroke-dashoffset="0" font-family="none" font-weight="none" font-size="none" text-anchor="none" style="mix-blend-mode: normal" data-fill-palette-color="secondary" opacity="1"></path></g></svg></g></svg></g></svg></g></svg></g><g transform="matrix(1,0,0,1,412.23759971043455,0)"><svg viewBox="0 0 212.01954201142289 212.01954201142289" height="212.01954201142289" width="212.01954201142289"><g><svg xmlns="http://www.w3.org/2000/svg" xmlns:xlink="http://www.w3.org/1999/xlink" version="1.1" x="0" y="0" viewBox="15.333000183105469 15.333000183105469 69.33399963378906 69.33399963378906" enable-background="new 0 0 100 100" xml:space="preserve" height="212.01954201142289" width="212.01954201142289" class="icon-icon-0" data-fill-palette-color="accent" id="icon-0"><path d="M75.667 15.333H24.333c-4.962 0-9 4.038-9 9v51.334c0 4.963 4.038 9 9 9h3.417 1 13.5 1 32.417c4.962 0 9-4.037 9-9V24.333C84.667 19.371 80.629 15.333 75.667 15.333zM60.25 56.759V17.333h6.186v39.425h4.814v25.909h-13.5V56.759H60.25zM24.333 82.667c-3.859 0-7-3.141-7-7V24.333c0-3.86 3.141-7 7-7v39.425h3.417v25.909H24.333zM28.75 82.667V56.758h3.949V17.333h9.551v65.334H28.75zM43.25 17.333h8.635v39.426h4.865v25.908h-13.5V17.333zM82.667 75.667c0 3.859-3.14 7-7 7H72.25V56.758h2.551V17.333h0.866c3.86 0 7 3.14 7 7V75.667z" fill="#d2601a" data-fill-palette-color="accent"></path></svg></g></svg></g></svg></g><defs></defs></svg><rect width="395.5199999999999" height="134.33241472425402" fill="none" stroke="none" visibility="hidden"></rect></g></svg></g></svg>