<svg xmlns="http://www.w3.org/2000/svg" version="1.1" xmlns:xlink="http://www.w3.org/1999/xlink" xmlns:svgjs="http://svgjs.dev/svgjs" width="1000" height="186" viewBox="0 0 1000 186"><g transform="matrix(1,0,0,1,-0.6060606060606233,0.026089832119851053)"><svg viewBox="0 0 396 74" data-background-color="#ffffff" preserveAspectRatio="xMidYMid meet" height="186" width="1000" xmlns="http://www.w3.org/2000/svg" xmlns:xlink="http://www.w3.org/1999/xlink"><g id="tight-bounds" transform="matrix(1,0,0,1,0.2400000000000091,-0.010379825682093724)"><svg viewBox="0 0 395.52 74.02037563583585" height="74.02037563583585" width="395.52"><g><svg viewBox="0 0 510.72425219704246 95.58050413116011" height="74.02037563583585" width="395.52"><g transform="matrix(1,0,0,1,115.20425219704246,27.009075594991817)"><svg viewBox="0 0 395.52 41.56235294117648" height="41.56235294117648" width="395.52"><g><svg viewBox="0 0 395.52 41.56235294117648" height="41.56235294117648" width="395.52"><g><svg viewBox="0 0 395.52 41.56235294117648" height="41.56235294117648" width="395.52"><g transform="matrix(1,0,0,1,0,0)"><svg width="395.52" viewBox="2.1 -36.1 349.67999999999995 36.800000000000004" height="41.56235294117648" data-palette-color="#ecab55"><g class="undefined-text-0" data-fill-palette-color="primary" id="text-0"><path d="M2.1-34.4L2.1-35.4Q3.15-35.35 4.85-35.3 6.55-35.25 8.2-35.25L8.2-35.25Q10.55-35.25 12.7-35.3 14.85-35.35 15.75-35.35L15.75-35.35Q21.8-35.35 24.8-32.85 27.8-30.35 27.8-26.65L27.8-26.65Q27.8-25.15 27.2-23.45 26.6-21.75 25.13-20.25 23.65-18.75 21.1-17.78 18.55-16.8 14.65-16.8L14.65-16.8 9.85-16.8 9.85-17.8 14.15-17.8Q17.7-17.8 19.58-18.93 21.45-20.05 22.13-21.93 22.8-23.8 22.8-26.1L22.8-26.1Q22.8-30.05 20.93-32.23 19.05-34.4 14.5-34.4L14.5-34.4Q12.2-34.4 11.5-33.55 10.8-32.7 10.8-30.1L10.8-30.1 10.8-5.3Q10.8-3.5 11.1-2.6 11.4-1.7 12.28-1.4 13.15-1.1 14.85-1L14.85-1 14.85 0Q13.7-0.1 11.98-0.13 10.25-0.15 8.5-0.15L8.5-0.15Q6.55-0.15 4.85-0.13 3.15-0.1 2.1 0L2.1 0 2.1-1Q3.8-1.1 4.67-1.4 5.55-1.7 5.85-2.6 6.15-3.5 6.15-5.3L6.15-5.3 6.15-30.1Q6.15-31.95 5.85-32.83 5.55-33.7 4.67-34.02 3.8-34.35 2.1-34.4L2.1-34.4ZM10.15-16.8L10.05-17.65Q12.75-17.55 14.3-17.43 15.85-17.3 16.82-17.2 17.8-17.1 18.7-16.95L18.7-16.95Q22.05-16.4 23.53-14.93 25-13.45 25.7-10.35L25.7-10.35 26.95-5.25Q27.45-3.05 27.98-2.08 28.5-1.1 29.6-1.15L29.6-1.15Q30.45-1.2 31.03-1.7 31.6-2.2 32.25-3.05L32.25-3.05 33-2.5Q31.95-0.95 30.83-0.13 29.7 0.7 27.65 0.7L27.65 0.7Q25.8 0.7 24.4-0.4 23-1.5 22.3-4.7L22.3-4.7 21.2-9.7Q20.75-11.85 20.18-13.43 19.6-15 18.57-15.9 17.55-16.8 15.55-16.8L15.55-16.8 10.15-16.8ZM50.95-36.1L50.95-36.1Q55.7-36.1 59.27-33.95 62.85-31.8 64.82-27.78 66.8-23.75 66.8-18L66.8-18Q66.8-12.4 64.77-8.2 62.75-4 59.15-1.65 55.55 0.7 50.9 0.7L50.9 0.7Q46.15 0.7 42.57-1.45 39-3.6 37.02-7.65 35.05-11.7 35.05-17.4L35.05-17.4Q35.05-23 37.1-27.2 39.15-31.4 42.72-33.75 46.3-36.1 50.95-36.1ZM50.75-35.2L50.75-35.2Q47.5-35.2 45.1-32.95 42.7-30.7 41.37-26.75 40.05-22.8 40.05-17.6L40.05-17.6Q40.05-12.3 41.52-8.38 43-4.45 45.52-2.33 48.05-0.2 51.1-0.2L51.1-0.2Q54.35-0.2 56.75-2.45 59.15-4.7 60.47-8.68 61.8-12.65 61.8-17.8L61.8-17.8Q61.8-23.15 60.32-27.05 58.85-30.95 56.35-33.08 53.85-35.2 50.75-35.2ZM84.3-35.4L84.3-35.4 84.3-34.4Q82.6-34.35 81.72-34.02 80.85-33.7 80.55-32.83 80.25-31.95 80.25-30.1L80.25-30.1 80.25-5.3Q80.25-3.5 80.55-2.6 80.85-1.7 81.72-1.43 82.6-1.15 84.3-1.15L84.3-1.15 87.95-1.15Q91.1-1.15 92.72-2.05 94.35-2.95 95.07-5 95.8-7.05 96.15-10.5L96.15-10.5 97.3-10.5Q97.15-8.95 97.15-6.4L97.15-6.4Q97.15-5.45 97.22-3.68 97.3-1.9 97.5 0L97.5 0Q94.95-0.1 91.75-0.13 88.55-0.15 86.05-0.15L86.05-0.15Q84.55-0.15 82.07-0.15 79.6-0.15 76.8-0.13 74-0.1 71.55 0L71.55 0 71.55-1Q73.25-1.1 74.12-1.4 75-1.7 75.3-2.6 75.6-3.5 75.6-5.3L75.6-5.3 75.6-30.1Q75.6-31.95 75.3-32.83 75-33.7 74.12-34.02 73.25-34.35 71.55-34.4L71.55-34.4 71.55-35.4Q72.6-35.35 74.3-35.3 76-35.25 77.95-35.25L77.95-35.25Q79.7-35.25 81.42-35.3 83.15-35.35 84.3-35.4ZM114.99-35.65L114.99-35.65 127.19-4.2Q127.94-2.3 128.89-1.68 129.84-1.05 130.64-1L130.64-1 130.64 0Q129.64-0.1 128.19-0.13 126.74-0.15 125.29-0.15L125.29-0.15Q123.34-0.15 121.64-0.13 119.94-0.1 118.89 0L118.89 0 118.89-1Q121.44-1.1 122.14-1.88 122.84-2.65 121.84-5.2L121.84-5.2 112.54-30.05 113.34-30.7 104.64-8.1Q103.59-5.4 103.64-3.88 103.69-2.35 104.79-1.7 105.89-1.05 107.99-1L107.99-1 107.99 0Q106.59-0.1 105.07-0.13 103.54-0.15 102.24-0.15L102.24-0.15Q100.99-0.15 100.12-0.13 99.24-0.1 98.49 0L98.49 0 98.49-1Q99.49-1.25 100.54-2.18 101.59-3.1 102.44-5.35L102.44-5.35 114.19-35.65Q114.39-35.65 114.59-35.65 114.79-35.65 114.99-35.65ZM106.69-14.4L121.09-14.4 121.09-13.4 106.19-13.4 106.69-14.4ZM163.84-35.4L163.84-35.4 163.84-34.4Q162.14-34.35 161.27-33.9 160.39-33.45 160.09-32.45 159.79-31.45 159.79-29.6L159.79-29.6 159.79 0.25Q159.49 0.25 159.22 0.25 158.94 0.25 158.64 0.25L158.64 0.25 137.64-32.2 137.64-5.8Q137.64-4 137.97-2.98 138.29-1.95 139.27-1.53 140.24-1.1 142.19-1L142.19-1 142.19 0Q141.29-0.1 139.84-0.13 138.39-0.15 137.09-0.15L137.09-0.15Q135.84-0.15 134.57-0.13 133.29-0.1 132.44 0L132.44 0 132.44-1Q134.14-1.1 135.02-1.53 135.89-1.95 136.19-2.98 136.49-4 136.49-5.8L136.49-5.8 136.49-30.1Q136.49-31.95 136.19-32.83 135.89-33.7 135.02-34.02 134.14-34.35 132.44-34.4L132.44-34.4 132.44-35.4Q133.29-35.35 134.57-35.3 135.84-35.25 137.09-35.25L137.09-35.25Q138.19-35.25 139.19-35.3 140.19-35.35 140.99-35.4L140.99-35.4 158.64-8.2 158.64-29.6Q158.64-31.45 158.32-32.45 157.99-33.45 157.02-33.9 156.04-34.35 154.09-34.4L154.09-34.4 154.09-35.4Q154.99-35.35 156.47-35.3 157.94-35.25 159.19-35.25L159.19-35.25Q160.49-35.25 161.77-35.3 163.04-35.35 163.84-35.4ZM181.39-35.4L181.39-35.4Q190.34-35.4 194.69-30.93 199.04-26.45 199.04-18.1L199.04-18.1Q199.04-12.65 196.91-8.58 194.79-4.5 190.74-2.25 186.69 0 180.94 0L180.94 0Q179.84 0 177.69-0.08 175.54-0.15 173.94-0.15L173.94-0.15Q172.19-0.15 170.49-0.13 168.79-0.1 167.74 0L167.74 0 167.74-1Q169.44-1.1 170.31-1.4 171.19-1.7 171.49-2.6 171.79-3.5 171.79-5.3L171.79-5.3 171.79-30.1Q171.79-31.95 171.49-32.83 171.19-33.7 170.31-34.02 169.44-34.35 167.74-34.4L167.74-34.4 167.74-35.4Q168.79-35.35 170.49-35.27 172.19-35.2 173.84-35.25L173.84-35.25Q175.59-35.3 177.79-35.35 179.99-35.4 181.39-35.4ZM180.14-34.5L180.14-34.5Q177.84-34.5 177.14-33.65 176.44-32.8 176.44-30.2L176.44-30.2 176.44-5.2Q176.44-2.6 177.16-1.75 177.89-0.9 180.19-0.9L180.19-0.9Q185.64-0.9 188.64-2.88 191.64-4.85 192.84-8.65 194.04-12.45 194.04-17.9L194.04-17.9Q194.04-26.3 190.96-30.4 187.89-34.5 180.14-34.5Z" fill="#ecab55" data-fill-palette-color="primary"></path><path d="M240.49-35.4L240.49-35.4 240.49-34.4Q238.79-34.35 237.92-34.02 237.04-33.7 236.74-32.83 236.44-31.95 236.44-30.1L236.44-30.1 236.44-5.3Q236.44-3.5 236.74-2.6 237.04-1.7 237.92-1.4 238.79-1.1 240.49-1L240.49-1 240.49 0Q239.34-0.1 237.62-0.13 235.89-0.15 234.14-0.15L234.14-0.15Q232.19-0.15 230.49-0.13 228.79-0.1 227.74 0L227.74 0 227.74-1Q229.44-1.1 230.32-1.4 231.19-1.7 231.49-2.6 231.79-3.5 231.79-5.3L231.79-5.3 231.79-32.8 231.99-32.65 219.74 0.25 218.94 0.25 206.34-32.2 206.34-5.8Q206.34-4 206.67-2.98 206.99-1.95 207.97-1.53 208.94-1.1 210.89-1L210.89-1 210.89 0Q209.99-0.1 208.54-0.13 207.09-0.15 205.79-0.15L205.79-0.15Q204.54-0.15 203.27-0.13 201.99-0.1 201.14 0L201.14 0 201.14-1Q202.84-1.1 203.71-1.53 204.59-1.95 204.89-2.98 205.19-4 205.19-5.8L205.19-5.8 205.19-30.1Q205.19-31.95 204.89-32.83 204.59-33.7 203.71-34.02 202.84-34.35 201.14-34.4L201.14-34.4 201.14-35.4Q201.99-35.35 203.27-35.3 204.54-35.25 205.79-35.25L205.79-35.25Q206.89-35.25 208.07-35.3 209.24-35.35 210.04-35.4L210.04-35.4 221.39-5.5 220.54-5.1 231.79-35.25Q232.39-35.25 232.97-35.25 233.54-35.25 234.14-35.25L234.14-35.25Q235.89-35.25 237.62-35.3 239.34-35.35 240.49-35.4ZM275.34-35.4L275.34-35.4 275.34-34.4Q273.64-34.35 272.76-33.9 271.89-33.45 271.59-32.45 271.29-31.45 271.29-29.6L271.29-29.6 271.29-14.55Q271.29-11.05 270.84-8.45 270.39-5.85 269.24-3.95L269.24-3.95Q267.99-1.85 265.59-0.58 263.19 0.7 260.09 0.7L260.09 0.7Q257.69 0.7 255.51 0.13 253.34-0.45 251.69-2L251.69-2Q250.24-3.4 249.41-4.95 248.59-6.5 248.29-8.75 247.99-11 247.99-14.4L247.99-14.4 247.99-30.1Q247.99-31.95 247.69-32.83 247.39-33.7 246.51-34.02 245.64-34.35 243.94-34.4L243.94-34.4 243.94-35.4Q244.99-35.35 246.69-35.3 248.39-35.25 250.34-35.25L250.34-35.25Q252.09-35.25 253.81-35.3 255.54-35.35 256.69-35.4L256.69-35.4 256.69-34.4Q254.99-34.35 254.11-34.02 253.24-33.7 252.94-32.83 252.64-31.95 252.64-30.1L252.64-30.1 252.64-13.55Q252.64-10.15 253.14-7.3 253.64-4.45 255.31-2.75 256.99-1.05 260.54-1.05L260.54-1.05Q264.34-1.05 266.41-2.73 268.49-4.4 269.31-7.35 270.14-10.3 270.14-14L270.14-14 270.14-29.6Q270.14-31.45 269.71-32.45 269.29-33.45 268.29-33.9 267.29-34.35 265.59-34.4L265.59-34.4 265.59-35.4Q266.49-35.35 267.96-35.3 269.44-35.25 270.69-35.25L270.69-35.25Q271.99-35.25 273.26-35.3 274.54-35.35 275.34-35.4ZM289.49-35.95L289.49-35.95Q291.99-35.95 293.29-35.38 294.59-34.8 295.59-34.1L295.59-34.1Q296.19-33.75 296.56-33.58 296.94-33.4 297.29-33.4L297.29-33.4Q298.09-33.4 298.39-35.6L298.39-35.6 299.54-35.6Q299.49-34.75 299.41-33.58 299.34-32.4 299.31-30.48 299.29-28.55 299.29-25.4L299.29-25.4 298.14-25.4Q297.99-27.8 297.09-30 296.19-32.2 294.46-33.6 292.74-35 289.94-35L289.94-35Q287.29-35 285.56-33.4 283.84-31.8 283.84-29.2L283.84-29.2Q283.84-26.95 284.99-25.43 286.14-23.9 288.06-22.68 289.99-21.45 292.24-20.05L292.24-20.05Q294.84-18.45 296.86-16.88 298.89-15.3 300.06-13.4 301.24-11.5 301.24-8.8L301.24-8.8Q301.24-5.6 299.79-3.5 298.34-1.4 295.94-0.35 293.54 0.7 290.64 0.7L290.64 0.7Q287.99 0.7 286.44 0.1 284.89-0.5 283.79-1.15L283.79-1.15Q282.69-1.85 282.09-1.85L282.09-1.85Q281.29-1.85 280.99 0.35L280.99 0.35 279.84 0.35Q279.94-0.7 279.96-2.13 279.99-3.55 280.01-5.85 280.04-8.15 280.04-11.65L280.04-11.65 281.19-11.65Q281.39-8.65 282.31-6.05 283.24-3.45 285.16-1.88 287.09-0.3 290.29-0.3L290.29-0.3Q292.74-0.3 294.76-1.88 296.79-3.45 296.79-6.95L296.79-6.95Q296.79-10 294.64-12 292.49-14 288.99-16.1L288.99-16.1Q286.64-17.55 284.59-19.05 282.54-20.55 281.31-22.53 280.09-24.5 280.09-27.3L280.09-27.3Q280.09-30.25 281.41-32.18 282.74-34.1 284.89-35.02 287.04-35.95 289.49-35.95ZM318.53-35.4L318.53-35.4 318.53-34.4Q316.83-34.35 315.96-34.02 315.08-33.7 314.78-32.83 314.48-31.95 314.48-30.1L314.48-30.1 314.48-5.3Q314.48-3.5 314.78-2.6 315.08-1.7 315.96-1.4 316.83-1.1 318.53-1L318.53-1 318.53 0Q317.38-0.1 315.66-0.13 313.93-0.15 312.18-0.15L312.18-0.15Q310.23-0.15 308.53-0.13 306.83-0.1 305.78 0L305.78 0 305.78-1Q307.48-1.1 308.36-1.4 309.23-1.7 309.53-2.6 309.83-3.5 309.83-5.3L309.83-5.3 309.83-30.1Q309.83-31.95 309.53-32.83 309.23-33.7 308.36-34.02 307.48-34.35 305.78-34.4L305.78-34.4 305.78-35.4Q306.83-35.35 308.53-35.3 310.23-35.25 312.18-35.25L312.18-35.25Q313.93-35.25 315.66-35.3 317.38-35.35 318.53-35.4ZM339.18-36.1L339.18-36.1Q342.48-36.1 344.61-35.13 346.73-34.15 348.38-32.85L348.38-32.85Q349.38-32.1 349.91-32.68 350.43-33.25 350.63-35.4L350.63-35.4 351.78-35.4Q351.68-33.55 351.63-30.9 351.58-28.25 351.58-23.9L351.58-23.9 350.43-23.9Q350.08-26.05 349.78-27.33 349.48-28.6 349.06-29.5 348.63-30.4 347.93-31.3L347.93-31.3Q346.38-33.35 344.03-34.27 341.68-35.2 339.08-35.2L339.08-35.2Q336.63-35.2 334.66-33.98 332.68-32.75 331.26-30.45 329.83-28.15 329.06-24.9 328.28-21.65 328.28-17.6L328.28-17.6Q328.28-13.4 329.13-10.18 329.98-6.95 331.51-4.75 333.03-2.55 335.11-1.43 337.18-0.3 339.58-0.3L339.58-0.3Q341.83-0.3 344.28-1.2 346.73-2.1 348.13-4.1L348.13-4.1Q349.23-5.55 349.66-7.25 350.08-8.95 350.43-12L350.43-12 351.58-12Q351.58-7.45 351.63-4.67 351.68-1.9 351.78 0L351.78 0 350.63 0Q350.43-2.15 349.96-2.7 349.48-3.25 348.38-2.55L348.38-2.55Q346.53-1.25 344.46-0.28 342.38 0.7 339.13 0.7L339.13 0.7Q334.38 0.7 330.81-1.45 327.23-3.6 325.26-7.65 323.28-11.7 323.28-17.4L323.28-17.4Q323.28-23 325.33-27.2 327.38-31.4 330.96-33.75 334.53-36.1 339.18-36.1Z" fill="#ecab55" data-fill-palette-color="primary"></path></g></svg></g></svg></g></svg></g></svg></g><g><svg viewBox="0 0 95.58050413116011 95.58050413116011" height="95.58050413116011" width="95.58050413116011"><g><svg></svg></g><g id="icon-0"><svg viewBox="0 0 95.58050413116011 95.58050413116011" height="95.58050413116011" width="95.58050413116011"><g><path d="M0 47.79c0-26.394 21.396-47.79 47.79-47.79 26.394 0 47.79 21.396 47.791 47.79 0 26.394-21.396 47.79-47.791 47.791-26.394 0-47.79-21.396-47.79-47.791zM47.79 91.832c24.324 0 44.042-19.718 44.042-44.042 0-24.324-19.718-44.042-44.042-44.042-24.324 0-44.042 19.718-44.042 44.042 0 24.324 19.718 44.042 44.042 44.042z" data-fill-palette-color="accent" fill="#ecab55" stroke="transparent"></path></g><g transform="matrix(1,0,0,1,25.276179780450033,25.289726662895724)"><svg viewBox="0 0 45.02814457026005 45.00105080536866" height="45.00105080536866" width="45.02814457026005"><g><svg xmlns="http://www.w3.org/2000/svg" xmlns:xlink="http://www.w3.org/1999/xlink" version="1.1" x="0" y="0" viewBox="0.9461680204046408 2 96.05657141143212 95.99877346779193" enable-background="new 0 0 100 100" xml:space="preserve" height="45.00105080536866" width="45.02814457026005" class="icon-gn-0" data-fill-palette-color="accent" id="gn-0"><g fill="#ecab55" data-fill-palette-color="accent"><path fill="#ecab55" d="M93.732 14.804L28.318 2c-0.006 0-0.013 0-0.019 0h-1.634C24.862 2 23 3.445 23 5.224V6.86c0 0 0 0.004 0 0.007l0.203 46.41c-2.894 0.085-5.822 0.663-8.815 1.929C4.269 59.487-1.33 69.224 1.826 76.952c3.153 7.728 13.94 10.521 24.062 6.24 8.887-3.76 13.953-11.728 13.009-18.847C39.168 63.874 39 63.355 39 62.769V21.345l42 9.6V66.08c-3 0.125-5.866 0.713-8.732 1.926-10.118 4.28-15.859 14.018-12.703 21.745 3.152 7.729 13.871 10.522 23.989 6.241 9.112-3.856 14.558-12.131 13.258-19.384C96.924 76.28 97 75.937 97 75.567v-55.9c0-0.004 0-0.004 0-0.004v-1.641C97 16.245 95.537 14.804 93.732 14.804z" data-fill-palette-color="accent"></path></g></svg></g></svg></g></svg></g></svg></g></svg></g><defs></defs></svg><rect width="395.52" height="74.02037563583585" fill="none" stroke="none" visibility="hidden"></rect></g></svg></g></svg>